<?xml version="1.0" encoding="UTF-8"?>
<svg width="40px" height="40px" viewBox="0 0 40 40" version="1.1" xmlns="http://www.w3.org/2000/svg" xmlns:xlink="http://www.w3.org/1999/xlink">
    <!-- Generator: Sketch 56.2 (81672) - https://sketch.com -->
    <title>Icon JPG</title>
    <desc>Created with Sketch.</desc>
    <g id="Icon-JPG" stroke="none" stroke-width="1" fill="none" fill-rule="evenodd">
        <rect id="Rectangle" fill="#FFFFFF" opacity="0" x="0" y="0" width="40" height="40"></rect>
        <path d="M1.81964063,33.9074737 C1.9476063,33.698967 2.13311011,33.4772685 2.37816439,33.2472997 L12.3140097,23.9231028 L19.8888889,31.0316742 L29.3574879,20.3688171 L37.9348474,32.8087049 C38.1138218,33.0682745 38.2413625,33.3191794 38.320223,33.5564067 C38.3568543,33.4199557 38.3764001,33.2762995 38.3764001,33.1278845 L38.3764001,7.25306787 C38.3764001,6.3503496 37.6523466,5.62359994 36.7605146,5.62359994 L3.2394854,5.62359994 C2.34678438,5.62359994 1.62359994,6.35029917 1.62359994,7.25306787 L1.62359994,33.1278845 C1.62359994,33.4106572 1.69464617,33.6761633 1.81964063,33.9074737 L1.81964063,33.9074737 Z M3.55271368e-15,7.25306787 C3.55271368e-15,5.4564481 1.44725226,4 3.2394854,4 L36.7605146,4 C38.549633,4 40,5.45424862 40,7.25306787 L40,33.1278845 C40,34.9245043 38.5527477,36.3809524 36.7605146,36.3809524 L3.2394854,36.3809524 C1.45036702,36.3809524 3.55271368e-15,34.9267038 3.55271368e-15,33.1278845 L3.55271368e-15,7.25306787 Z M9.55072464,16.5910394 C7.70977547,16.5910394 6.2173913,15.1412947 6.2173913,13.3529441 C6.2173913,11.5645935 7.70977547,10.1148489 9.55072464,10.1148489 C11.3916738,10.1148489 12.884058,11.5645935 12.884058,13.3529441 C12.884058,15.1412947 11.3916738,16.5910394 9.55072464,16.5910394 Z" id="Shape" fill="#45D88D" fill-rule="nonzero"></path>
    </g>
</svg>