<?xml version="1.0" encoding="UTF-8"?>
<svg width="36px" height="36px" viewBox="0 0 36 36" version="1.1" xmlns="http://www.w3.org/2000/svg" xmlns:xlink="http://www.w3.org/1999/xlink">
    <!-- Generator: Sketch 56.2 (81672) - https://sketch.com -->
    <title>Icon PDF</title>
    <desc>Created with Sketch.</desc>
    <g id="Icon-PDF" stroke="none" stroke-width="1" fill="none" fill-rule="evenodd">
        <path d="M17.7424613,3.42046017 C17.6897102,3.39019277 17.6897102,3.39019277 17.640453,3.3625209 C17.5847036,3.33143011 17.5384018,3.30707966 17.5031742,3.28953624 C17.4882671,3.2919511 17.4681542,3.29513423 17.4354041,3.30031738 C17.3674546,3.30921663 17.3674546,3.30921663 17.3176473,3.31479042 C17.2056534,3.32729523 17.1983203,3.32874934 17.1333451,3.35357527 C17.0144529,3.39763887 16.9241244,3.46071087 16.8710488,3.54041035 C16.7534579,3.71735846 16.6388145,4.10988774 16.5543204,4.7462422 C16.4479778,5.52631712 16.4253943,6.38414308 16.5096453,7.27525936 C16.5714381,7.92685701 16.6983792,8.65852805 16.8840736,9.45358054 C17.2375652,7.90968713 17.4894195,6.44404607 17.6194436,5.20566268 C17.6480916,4.9347387 17.746279,4.06178701 17.7635138,3.89248801 C17.7823896,3.70706927 17.7942682,3.56401136 17.8001201,3.45385336 C17.7848396,3.4450049 17.7666546,3.43447248 17.7424613,3.42046017 Z M16.8840736,9.45358054 C16.9667546,9.80758049 17.0610836,10.1741459 17.1664959,10.5518032 C17.5403158,11.8947385 17.9442717,12.9557411 18.5907691,14.1880382 C19.3443703,15.6168295 20.4554924,17.2956304 21.7815274,18.9934117 C23.0586493,20.625547 24.6580396,22.42511 26.0795229,23.85503 C26.1086739,23.8843541 26.1376935,23.9134627 26.1665851,23.9423593 C25.357956,23.9112047 24.5339666,23.9296582 23.6937839,23.9979716 C22.6273706,24.0820183 21.4997984,24.2457851 19.9163104,24.5356417 C18.0698703,24.8722908 16.6077955,25.2051134 14.8230274,25.7336225 C12.5079203,26.4155797 10.0809597,27.3155131 8.30058676,28.1873303 C8.04534203,28.3129455 7.79747092,28.4408457 7.55748613,28.5704403 C8.2246276,27.734256 8.92709614,26.7702245 9.65295209,25.6848861 C11.8631704,22.3818587 13.8720789,18.6387359 15.1855125,15.1502374 C15.8771761,13.3134501 16.4553695,11.3259681 16.8840736,9.45358054 Z M4.28428863,30.8746826 C3.6771051,31.4739801 3.42136179,31.913189 3.3185418,32.3703779 C3.78618546,32.2089248 4.32505815,31.8863048 5.02112581,31.2911784 C5.77771921,30.6409515 6.63373784,29.7282514 7.55748613,28.5704403 C6.16960288,29.3199136 5.04548176,30.1260603 4.28428863,30.8746826 Z M29.2799051,26.6349075 C30.206563,27.2991608 31.0105779,27.7400822 31.6216461,27.9235319 C32.1160735,28.0719647 32.5222723,28.0648771 32.9359025,27.9302934 C33.2763658,27.821396 33.4676815,27.6773225 33.5412984,27.5192736 C33.6451178,27.297772 33.6376406,26.9095637 33.4754737,26.5471103 C33.2909296,26.1291258 32.865572,25.678098 32.3036492,25.3225529 C31.7642192,24.979555 31.102546,24.7270129 30.1535428,24.4926447 C29.183097,24.2582795 28.1099041,24.0838292 27.058148,23.9973236 C26.7630362,23.9722155 26.4658626,23.9538898 26.1665851,23.9423593 C27.3366951,25.1126728 28.2969275,25.9352363 29.2799051,26.6349075 Z M20.3496797,3.13551857 C20.3621614,3.40886919 20.3449269,3.70401416 20.2994591,4.15064919 C20.2805444,4.33645005 20.1815963,5.21616485 20.1544616,5.47277364 C19.8447178,8.42285893 18.9117876,12.4880273 17.5710598,16.0484743 C17.4608688,16.3411433 17.3461977,16.6352261 17.2272961,16.9303821 C16.8964081,16.3935208 16.5974117,15.8726412 16.3348064,15.3747521 C15.5973884,13.9691577 15.130254,12.7422149 14.7110498,11.2362368 C14.3315196,9.8765074 14.0771474,8.6249033 13.9719445,7.51555205 C13.8687829,6.42441884 13.8965139,5.37106157 14.0280355,4.4063448 C14.1585072,3.42362498 14.3705556,2.69758976 14.7487167,2.12854267 C15.1349401,1.54857291 15.6624795,1.18021799 16.2341573,0.968428823 C16.5312477,0.85452488 16.7253939,0.816026818 17.0347878,0.781481097 C17.0686788,0.777636046 17.0686788,0.777636046 17.0696371,0.777679789 C17.0799638,0.776034003 17.0799638,0.776034003 17.1183594,0.769217249 C17.4918259,0.702789046 17.7820432,0.698504013 18.1613387,0.814812985 C18.3966702,0.883680922 18.6109823,0.985119007 18.8820089,1.13626741 C18.950285,1.17462907 18.950285,1.17462907 19.0143021,1.21136836 C19.0993833,1.26063544 19.1177069,1.27124593 19.1658452,1.29908576 C19.9184222,1.65631823 20.3102756,2.27256724 20.3496797,3.13551857 Z M14.1314273,23.2799664 C15.9981453,22.7283271 17.5397213,22.3778763 19.4582148,22.0280905 C19.9298672,21.9417547 20.3648684,21.8658064 20.772676,21.7992062 C20.4258292,21.3830327 20.0905061,20.9687269 19.773312,20.5633593 C18.8060165,19.3248886 17.9422172,18.0903319 17.2272961,16.9303821 C16.380066,19.033507 15.3180375,21.1911182 14.1314273,23.2799664 Z M23.4903534,21.4570522 C24.777455,21.3523963 26.0395029,21.3523963 27.2706636,21.4571484 C28.4515003,21.5542651 29.6548118,21.7498664 30.7583006,22.0163792 C31.9591954,22.3129332 32.8645298,22.6584739 33.668988,23.1699946 C34.6280497,23.7768147 35.4003686,24.595743 35.8047866,25.5117714 C36.2572163,26.5228729 36.2795675,27.6833188 35.8507034,28.5983032 C35.4435047,29.4725709 34.6773017,30.0495728 33.7185737,30.3562056 C32.8223757,30.6478403 31.885501,30.6641875 30.8887077,30.3649387 C29.9634031,30.0871516 28.9302321,29.5205611 27.7982814,28.7091395 C26.6717017,27.9072639 25.5794572,26.9676138 24.2717458,25.652141 C23.1335529,24.5071928 21.8930002,23.143457 20.772676,21.7992062 C21.8009132,21.6312817 22.6562717,21.5227854 23.4903534,21.4570522 Z M14.1314273,23.2799664 C13.3864906,24.5913151 12.5924545,25.8755633 11.7716402,27.1022168 C9.92188712,29.8680659 8.17991001,31.9375453 6.68008845,33.2265073 C5.43403421,34.2918707 4.37685877,34.8095455 3.34932751,34.9868794 C2.31248016,35.1673651 1.48666543,34.908879 1.02499272,34.0411175 C0.700895272,33.4319429 0.644284958,32.6259901 0.830684463,31.8153128 C1.040741,30.8676807 1.54609882,29.9957388 2.49527983,29.0588886 C3.59370891,27.9785962 5.20967591,26.8674611 7.17728761,25.8991305 C9.10291044,24.956184 11.6598773,24.0080434 14.1010091,23.2889647 C14.1111581,23.2859593 14.1212975,23.2829599 14.1314273,23.2799664 Z" id="Shape" fill="#FC6B7C" fill-rule="nonzero"></path>
    </g>
</svg>