<?xml version="1.0" encoding="UTF-8"?>
<svg width="28px" height="34px" viewBox="0 0 28 34" version="1.1" xmlns="http://www.w3.org/2000/svg" xmlns:xlink="http://www.w3.org/1999/xlink">
    <!-- Generator: Sketch 56.2 (81672) - https://sketch.com -->
    <title>Icon WAV</title>
    <desc>Created with Sketch.</desc>
    <g id="页面-1" stroke="none" stroke-width="1" fill="none" fill-rule="evenodd">
        <g id="Icon-WAV" transform="translate(-4.000000, -1.000000)">
            <g>
                <polygon id="Rectangle" fill="#FFFFFF" opacity="0" points="0 0 36 0 36 36 0 36"></polygon>
                <g transform="translate(4.000000, 1.000000)" fill="#FF846B" id="Combined-Shape">
                    <path d="M0,3.4 C0,1.53 1.575,0 3.5,0 L17.5,0 L28,10.2 L28,30.6 C28,32.47 26.425,34 24.5,34 L3.5,34 C1.575,34 0,32.47 0,30.6 L0,3.4 Z M4.94117647,14.9312169 L4.94117647,20.3280423 L8.60130719,20.3280423 L13.1764706,24.8253968 L13.1764706,10.4338624 L8.60130719,14.9312169 L4.94117647,14.9312169 Z M17.2941176,17.6296296 C17.2941176,16.010582 16.379085,14.6613757 15.0065359,14.031746 L15.0065359,21.2275132 C16.379085,20.5978836 17.2941176,19.2486772 17.2941176,17.6296296 Z M15.0065359,9.71428571 L15.0065359,11.6031746 C17.6601307,12.4126984 19.5816993,14.7513228 19.5816993,17.6296296 C19.5816993,20.5079365 17.6601307,22.8465608 15.0065359,23.6560847 L15.0065359,25.5449735 C18.6666667,24.7354497 21.4117647,21.4973545 21.4117647,17.6296296 C21.4117647,13.7619048 18.6666667,10.5238095 15.0065359,9.71428571 Z"></path>
                </g>
            </g>
        </g>
    </g>
</svg>