<?xml version="1.0" encoding="UTF-8"?>
<svg width="16px" height="16px" viewBox="0 0 16 16" version="1.1" xmlns="http://www.w3.org/2000/svg" xmlns:xlink="http://www.w3.org/1999/xlink">
    <!-- Generator: Sketch 52.2 (67145) - http://www.bohemiancoding.com/sketch -->
    <title>Shape</title>
    <desc>Created with Sketch.</desc>
    <g id="Page-1" stroke="none" stroke-width="1" fill="none" fill-rule="evenodd">
        <g id="3高级搜索" transform="translate(-1038.000000, -160.000000)" fill="#AC1F24" fill-rule="nonzero">
            <g id="Group-14" transform="translate(202.000000, 80.000000)">
                <g id="Group-7" transform="translate(772.000000, 78.000000)">
                    <g id="更多-全部-分类" transform="translate(64.000000, 2.000000)">
                        <path d="M5.42887979,7.35795066 L1.95104252,7.35795066 C0.882306298,7.35795066 0.0159244094,6.49156877 0.0159244094,5.42283255 L0.0159244094,1.94499528 C0.0159244094,0.876259054 0.882306298,0.00987716535 1.95104252,0.00987716535 L5.42887979,0.00987716535 C6.49761601,0.00987716535 7.3639979,0.876259054 7.3639979,1.94499528 L7.3639979,5.42283255 C7.3639979,6.49156877 6.49761601,7.35795066 5.42887979,7.35795066 Z M1.95104252,1.29995591 C1.59479711,1.29995591 1.30600315,1.58874987 1.30600315,1.94499528 L1.30600315,5.42283255 C1.30600315,5.77907795 1.59479711,6.06787192 1.95104252,6.06787192 L5.42887979,6.06787192 C5.7851252,6.06787192 6.07391916,5.77907795 6.07391916,5.42283255 L6.07391916,1.94499528 C6.07391916,1.58874987 5.7851252,1.29995591 5.42887979,1.29995591 L1.95104252,1.29995591 Z M5.42887979,15.8251675 L1.95104252,15.8251675 C0.882306298,15.8251675 0.0159244094,14.9587856 0.0159244094,13.8900493 L0.0159244094,10.4132871 C0.0159244094,9.34455092 0.882306298,8.47816903 1.95104252,8.47816903 L5.42887979,8.47816903 C6.49761601,8.47816903 7.3639979,9.34455092 7.3639979,10.4132871 L7.3639979,13.8900493 C7.3639979,14.9587856 6.49761601,15.8251675 5.42887979,15.8251675 Z M1.95104252,9.76824777 C1.59479711,9.76824777 1.30600315,10.0570417 1.30600315,10.4132871 L1.30600315,13.8900493 C1.30600315,14.2462948 1.59479711,14.5350887 1.95104252,14.5350887 L5.42887979,14.5350887 C5.7851252,14.5350887 6.07391916,14.2462948 6.07391916,13.8900493 L6.07391916,10.4132871 C6.07391916,10.0570417 5.7851252,9.76824777 5.42887979,9.76824777 L1.95104252,9.76824777 Z M14.0648819,7.35795066 L10.5924199,7.35795066 C9.52368373,7.35795066 8.65730184,6.49156877 8.65730184,5.42283255 L8.65730184,1.94499528 C8.65730184,0.876259054 9.52368373,0.00987716535 10.5924199,0.00987716535 L14.0648819,0.00987716535 C15.1336181,0.00987716535 16,0.876259054 16,1.94499528 L16,5.42283255 C16,6.49156877 15.1336181,7.35795066 14.0648819,7.35795066 Z M10.5924199,1.29995591 C10.2361745,1.29995591 9.94738058,1.58874987 9.94738058,1.94499528 L9.94738058,5.42283255 C9.94738058,5.77907795 10.2361745,6.06787192 10.5924199,6.06787192 L14.0648819,6.06787192 C14.235957,6.06787192 14.4000253,5.99991261 14.5209936,5.87894426 C14.6419619,5.75797591 14.7099213,5.59390762 14.7099213,5.42283255 L14.7099213,1.94499528 C14.7099213,1.7739202 14.6419619,1.60985191 14.5209936,1.48888356 C14.4000253,1.36791522 14.235957,1.29995591 14.0648819,1.29995591 L10.5924199,1.29995591 Z M15.3549606,9.87575433 L9.30234121,9.87575433 C9.07189083,9.87575434 8.85894589,9.75281054 8.74372069,9.55323466 C8.6284955,9.35365878 8.6284955,9.10777115 8.74372069,8.90819526 C8.85894589,8.70861938 9.07189083,8.58567558 9.30234121,8.58567559 L15.3549606,8.58567559 C15.711206,8.58567559 16,8.87446955 16,9.23071496 C16,9.58696037 15.711206,9.87575433 15.3549606,9.87575433 Z M15.3549606,12.8504609 L9.30234121,12.8504609 C8.9460958,12.8504609 8.65730184,12.5616669 8.65730184,12.2054215 C8.65730184,11.8491761 8.9460958,11.5603822 9.30234121,11.5603822 L15.3549606,11.5603822 C15.711206,11.5603822 16,11.8491761 16,12.2054215 C16,12.5616669 15.711206,12.8504609 15.3549606,12.8504609 Z M15.3549606,15.8251675 L9.30234121,15.8251675 C8.94609582,15.8251674 8.65730188,15.5363735 8.65730188,15.1801281 C8.65730188,14.8238827 8.94609582,14.5350887 9.30234121,14.5350887 L15.3549606,14.5350887 C15.711206,14.5350887 16,14.8238827 16,15.1801281 C16,15.5363735 15.711206,15.8251675 15.3549606,15.8251675 Z" id="Shape"></path>
                    </g>
                </g>
            </g>
        </g>
    </g>
</svg>