<?xml version="1.0" encoding="UTF-8"?>
<svg width="20px" height="20px" viewBox="0 0 20 20" version="1.1" xmlns="http://www.w3.org/2000/svg" xmlns:xlink="http://www.w3.org/1999/xlink">
    <!-- Generator: Sketch 52.2 (67145) - http://www.bohemiancoding.com/sketch -->
    <title>查看流程图icon</title>
    <desc>Created with Sketch.</desc>
    <defs>
        <path d="M17.4525444,10.3769467 L15.3075976,10.3769467 L15.3075976,8.63190533 C15.3075976,8.32288757 15.0712899,8.08657988 14.7622722,8.08657988 L9.59985799,8.08657988 L9.59985799,6.48695858 L11.7448047,6.48695858 C12.0538225,6.48695858 12.2901302,6.25065089 12.2901302,5.94163314 L12.2901302,0.561088757 C12.2901302,0.252071006 12.0538225,0.0157633136 11.7448047,0.0157633136 L6.36426036,0.0157633136 C6.0552426,0.0157633136 5.81893491,0.252071006 5.81893491,0.561088757 L5.81893491,5.94163314 C5.81893491,6.25065089 6.0552426,6.48695858 6.36426036,6.48695858 L8.5092071,6.48695858 L8.5092071,8.08657988 L3.23772781,8.08657988 C2.92871006,8.08657988 2.69240237,8.32288757 2.69240237,8.63190533 L2.69240237,10.3769467 L0.547455621,10.3769467 C0.23843787,10.3769467 0.00213017751,10.6132544 0.00213017751,10.9222722 L0.00213017751,16.3028166 C0.00213017751,16.6118343 0.23843787,16.848142 0.547455621,16.848142 L5.928,16.848142 C6.23701775,16.848142 6.47332544,16.6118343 6.47332544,16.3028166 L6.47332544,10.9222722 C6.47332544,10.6132544 6.23701775,10.3769467 5.928,10.3769467 L3.78305325,10.3769467 L3.78305325,9.17723077 L14.2169467,9.17723077 L14.2169467,10.3769467 L12.072,10.3769467 C11.7629822,10.3769467 11.5266746,10.6132544 11.5266746,10.9222722 L11.5266746,16.3028166 C11.5266746,16.6118343 11.7629822,16.848142 12.072,16.848142 L17.4525444,16.848142 C17.7615621,16.848142 17.9978698,16.6118343 17.9978698,16.3028166 L17.9978698,10.9222722 C17.9978698,10.6132544 17.7615621,10.3769467 17.4525444,10.3769467 Z M6.9095858,1.1064142 L11.1994793,1.1064142 L11.1994793,5.39630769 L6.9095858,5.39630769 L6.9095858,1.1064142 Z M5.38267456,15.7574911 L1.09278107,15.7574911 L1.09278107,11.4675976 L5.38267456,11.4675976 L5.38267456,15.7574911 Z M16.9072189,15.7574911 L12.6173254,15.7574911 L12.6173254,11.4675976 L16.9072189,11.4675976 L16.9072189,15.7574911 Z" id="path-1"></path>
    </defs>
    <g id="查看流程图icon" stroke="none" stroke-width="1" fill="none" fill-rule="evenodd">
        <g id="流程" transform="translate(1.000000, 1.568047)">
            <mask id="mask-2" fill="white">
                <use xlink:href="#path-1"></use>
            </mask>
            <use id="Shape" fill="#AC1F24" fill-rule="nonzero" xlink:href="#path-1"></use>
            <g id="颜色2" mask="url(#mask-2)" fill="#AC1F24">
                <g transform="translate(-1.000000, -1.568047)" id="Rectangle">
                    <rect x="0" y="0" width="20" height="20"></rect>
                </g>
            </g>
        </g>
    </g>
</svg>