<svg xmlns="http://www.w3.org/2000/svg" viewBox="0 0 468 92.0639" fill="#ffffff"><title>卓悦中心LOGO</title><path d="M77.68.37A22.3581,22.3581,0,0,0,62.82,5.9989V.37H55.2307V45.2678h14.358a21.1276,21.1276,0,0,1-11.418-19.1007c0-11.5936,8.7344-20.9917,19.5089-20.9917s19.5092,9.3981,19.5092,20.9917a21.1274,21.1274,0,0,1-11.418,19.1007h14.3577v-21.85l-.0154.0046c.0057-.2012.0154-.4009.0154-.6032A22.4492,22.4492,0,0,0,77.68.37Z"/><path d="M342.6446,0a22.54,22.54,0,0,0-14.9819,5.6757V0h-7.6518V45.2678h14.4762a21.3016,21.3016,0,0,1-11.512-19.258c0-11.6889,8.8067-21.1644,19.67-21.1644s19.67,9.4755,19.67,21.1644a21.3006,21.3006,0,0,1-11.5119,19.258h14.4758v-22.03l-.0151.0046c.0053-.2028.0151-.4041.0151-.6081A22.6341,22.6341,0,0,0,342.6446,0Z"/><path d="M22.4489.37a22.4489,22.4489,0,1,0,22.449,22.4493A22.4493,22.4493,0,0,0,22.4489.37Zm1.46,38.769a18.071,18.071,0,1,1,18.07-18.0706A18.0707,18.0707,0,0,1,23.9086,39.1386Z"/><path d="M413.6174,19.4642c0,11.5906-8.7321,20.9863-19.5035,20.9863h0c-10.7709,0-19.5035-9.3957-19.5035-20.9863A21.12,21.12,0,0,1,386.0248.37H371.6709V22.8125A22.4425,22.4425,0,0,0,394.1134,45.255h0a22.4422,22.4422,0,0,0,22.4425-22.4425V.37H402.2025A21.12,21.12,0,0,1,413.6174,19.4642Z"/><path d="M117.6848,17.261a14.7954,14.7954,0,1,1,27.2513,7.9875h9.5229v-2.43a22.4319,22.4319,0,1,0-1.765,8.7392l-.1493-.0626h-5.2418a17.5846,17.5846,0,0,1-32.7142-6.2466h5.4354A14.726,14.726,0,0,1,117.6848,17.261Z"/><path d="M276.4746,17.261a14.7954,14.7954,0,1,1,27.2513,7.9875h9.5229v-2.43a22.4319,22.4319,0,1,0-1.765,8.7392l-.1493-.0626h-5.2418a17.5846,17.5846,0,0,1-32.7142-6.2466h5.4355A14.726,14.726,0,0,1,276.4746,17.261Z"/><path d="M431.2258,17.261a14.7954,14.7954,0,1,1,27.2513,7.9875H468v-2.43a22.4319,22.4319,0,1,0-1.765,8.7392l-.1493-.0626h-5.2418A17.5846,17.5846,0,0,1,428.13,25.2485h5.4354A14.726,14.726,0,0,1,431.2258,17.261Z"/><path d="M196.3674,21.9933A15.68,15.68,0,0,1,210.0636,45.3h10.4389L196.3674.37,172.2322,45.3h10.439a15.6794,15.6794,0,0,1,13.6962-23.307Z"/><path d="M240.3473,23.6765A15.6794,15.6794,0,0,1,226.6511.37H216.2122L240.3473,45.3,264.4825.37h-10.439a15.6793,15.6793,0,0,1-13.6962,23.3069Z"/><path d="M282.0012,82.62H244.207V66.6573h37.7942ZM246.3223,80.505h33.5636V68.7728H246.3223Z"/><rect x="245.2647" y="73.5811" width="35.6787" height="2.1155"/><rect x="262.0464" y="59.9702" width="2.1153" height="7.5597"/><rect x="263.1041" y="62.2562" width="20.8961" height="2.1152"/><rect x="240.6392" y="85.8062" width="45.3599" height="2.1151"/><rect x="262.0464" y="81.5628" width="2.1153" height="10.4368"/><path d="M406.3662,86.8354H366.7438V64.3633h39.6224ZM368.8592,84.72h35.3917V66.4789H368.8592Z"/><rect x="385.4974" y="59.9704" width="2.1152" height="32.0292"/><rect x="303.9378" y="66.6513" width="2.1154" height="15.969"/><rect x="308.6262" y="59.9702" width="2.1153" height="32.0294"/><path d="M344.8149,80.0906H319.06V64.3633h25.7554Zm-23.64-2.1155H342.7V66.4789h-21.525Z"/><polygon points="345.936 92.064 336.427 92.064 336.162 79.054 338.277 79.011 338.5 89.948 345.936 89.948 345.936 92.064"/><polygon points="320.787 92 328.158 79.572 326.339 78.493 318.327 92 320.787 92"/><polygon points="315.867 77.975 310.638 66.248 308.73 67.16 313.522 77.975 315.867 77.975"/><polygon points="322.859 59.97 326.135 66.248 328.01 65.269 325.245 59.97 322.859 59.97"/><polygon points="339.424 59.97 336.536 65.251 338.391 66.266 341.835 59.97 339.424 59.97"/><polygon points="467.433 86.864 464.097 62.248 461.963 62.248 465.298 86.864 467.433 86.864"/><polygon points="453.143 73.571 447.429 59.97 445.131 59.97 450.844 73.571 453.143 73.571"/><polygon points="430.084 62.248 426.995 86.864 429.127 86.864 432.216 62.248 430.084 62.248"/><polygon points="455.669 89.884 455.121 89.884 439.164 89.884 439.164 62.248 437.048 62.248 437.048 92 457.785 92 457.785 89.884 455.669 89.884"/></svg>