<?xml version="1.0" encoding="UTF-8"?>
<svg width="36px" height="36px" viewBox="0 0 36 36" version="1.1" xmlns="http://www.w3.org/2000/svg" xmlns:xlink="http://www.w3.org/1999/xlink">
    <!-- Generator: Sketch 56.2 (81672) - https://sketch.com -->
    <title>Icon HTML</title>
    <desc>Created with Sketch.</desc>
    <g id="Icon-HTML" stroke="none" stroke-width="1" fill="none" fill-rule="evenodd">
        <g>
            <rect id="Rectangle" fill="#FFFFFF" opacity="0" x="0" y="0" width="36" height="36"></rect>
            <g id="Group-3" transform="translate(4.000000, 1.000000)" fill="#7F9CB5">
                <path d="M3.45014988,-5.68434189e-14 L17.2507494,-5.68434189e-14 L27.601199,10.2286796 L27.601199,30.6860389 C27.601199,32.5612969 26.0486316,34.0955988 24.1510492,34.0955988 L3.45014988,34.0955988 C1.55256745,34.0955988 -5.5067062e-14,32.5612969 -5.5067062e-14,30.6860389 L-5.5067062e-14,3.40955988 C-5.5067062e-14,1.53430195 1.55256745,-5.68434189e-14 3.45014988,-5.68434189e-14 Z M9.01097968,16.772696 L0.811799972,20.5069759 L0.811799972,21.3350118 L9.01097968,25.0692917 L9.01097968,24.1276038 L1.94831993,20.9128759 L9.01097968,17.714384 L9.01097968,16.772696 Z M16.3496514,11.8044802 L10.5209276,26.7415997 L11.4139076,26.7415997 L17.2426314,11.8044802 L16.3496514,11.8044802 Z M18.7525793,16.772696 L18.7525793,17.714384 L25.8152391,20.9128759 L18.7525793,24.1276038 L18.7525793,25.0692917 L26.9517591,21.3350118 L26.9517591,20.5069759 L18.7525793,16.772696 Z" id="Combined-Shape"></path>
            </g>
        </g>
    </g>
</svg>