<?xml version="1.0" encoding="UTF-8"?>
<svg width="36px" height="36px" viewBox="0 0 36 36" version="1.1" xmlns="http://www.w3.org/2000/svg" xmlns:xlink="http://www.w3.org/1999/xlink">
    <!-- Generator: Sketch 56.2 (81672) - https://sketch.com -->
    <title>Icon MP4</title>
    <desc>Created with Sketch.</desc>
    <g id="Icon-MP4" stroke="none" stroke-width="1" fill="none" fill-rule="evenodd">
        <g>
            <rect id="Rectangle" fill="#FFFFFF" opacity="0" x="0" y="0" width="36" height="36"></rect>
            <path d="M27.8999987,5 L34.4999983,5 L34.4999983,28.0999988 C34.4999983,29.9149987 33.0149984,31.3999987 31.1999985,31.3999987 L4.79999983,31.3999987 C2.98499992,31.3999987 1.5,29.9149987 1.5,28.0999988 L1.5,8.29999983 C1.5,6.48499992 2.98499992,5 4.79999983,5 L6.44999975,5 L9.74999958,11.5999997 L14.6999993,11.5999997 L11.3999995,5 L14.6999993,5 L17.9999992,11.5999997 L22.9499989,11.5999997 L19.6499991,5 L22.9499989,5 L26.2499987,11.5999997 L31.1999985,11.5999997 L27.8999987,5 Z M14.6999993,16.5499994 L14.6999993,26.4499989 L22.4785704,21.4999992 L14.6999993,16.5499994 Z" id="Combined-Shape" fill="#FF6180"></path>
        </g>
    </g>
</svg>