<?xml version="1.0" encoding="UTF-8"?>
<svg width="36px" height="36px" viewBox="0 0 36 36" version="1.1" xmlns="http://www.w3.org/2000/svg" xmlns:xlink="http://www.w3.org/1999/xlink">
    <!-- Generator: Sketch 56.2 (81672) - https://sketch.com -->
    <title>Icon CSS</title>
    <desc>Created with Sketch.</desc>
    <g id="Icon-CSS" stroke="none" stroke-width="1" fill="none" fill-rule="evenodd">
        <g>
            <polygon id="Rectangle" fill="#FFFFFF" opacity="0" points="0 0 36 0 36 36 0 36"></polygon>
            <g transform="translate(4.000000, 1.000000)" fill="#7F9CB5" id="Group-3">
                <g>
                    <path d="M3.5,0 L17.5,0 L28,10.2 L28,30.6 C28,32.47 26.425,34 24.5,34 L3.5,34 C1.575,34 0,32.47 0,30.6 L0,3.4 C0,1.53 1.575,0 3.5,0 Z M11.6709559,25.5600818 L11.9765625,24.6509487 C10.8720839,24.3031047 10.3118107,23.4045211 10.2957261,21.9551711 L10.2957261,20.3266369 C10.2957261,19.1197236 9.84804369,18.2791132 8.95266544,17.8047805 C9.84804369,17.3357181 10.2957261,16.5030132 10.2957261,15.3066406 L10.2957261,13.7097284 C10.2957261,12.2234859 10.8559993,11.3038212 11.9765625,10.9507068 L11.6709559,10.0415737 C10.7112391,10.3103622 9.99682373,10.741208 9.52768842,11.3341239 C9.05855311,11.9270398 8.8186275,12.7057243 8.80790441,13.6702009 L8.80790441,15.3145461 C8.80790441,16.5899741 8.23958902,17.2276786 7.10294118,17.2276786 L7.10294118,18.3739769 C8.23958902,18.3739769 8.80790441,19.0143165 8.80790441,20.2950149 L8.80790441,21.8682106 C8.80790441,22.8590389 9.04783001,23.6561695 9.52768842,24.2596261 C10.0075468,24.8630828 10.7219622,25.2965637 11.6709559,25.5600818 Z M16.3917739,24.6509487 L16.7054228,25.5600818 C17.6436934,25.2965637 18.355428,24.8670355 18.840648,24.2714844 C19.3258679,23.6759333 19.5684743,22.8827555 19.5684743,21.8919271 L19.5684743,20.2950149 C19.5684743,19.0143165 20.1367897,18.3739769 21.2734375,18.3739769 L21.2734375,17.2276786 C20.1367897,17.2276786 19.5684743,16.5978796 19.5684743,15.3382626 L19.5684743,13.6781064 C19.5631127,12.7030891 19.3218467,11.9191343 18.8446691,11.3262184 C18.3674915,10.7333025 17.6544165,10.3050918 16.7054228,10.0415737 L16.3998162,10.9507068 C17.5203794,11.3038212 18.0806526,12.2234859 18.0806526,13.7097284 L18.0806526,15.3145461 C18.0806526,16.5425409 18.5658652,17.3726107 19.5363051,17.8047805 C18.5658652,18.2474911 18.0806526,19.0775609 18.0806526,20.2950149 L18.0806526,22.0342262 C18.0431217,23.4361429 17.4801678,24.308375 16.3917739,24.6509487 Z" id="Combined-Shape"></path>
                </g>
            </g>
        </g>
    </g>
</svg>