<?xml version="1.0" encoding="UTF-8"?>
<svg width="38px" height="52px" viewBox="0 0 38 52" version="1.1" xmlns="http://www.w3.org/2000/svg" xmlns:xlink="http://www.w3.org/1999/xlink">
    <!-- Generator: Sketch 53 (72520) - https://sketchapp.com -->
    <title>Group 4</title>
    <desc>Created with Sketch.</desc>
    <g id="Page-1" stroke="none" stroke-width="1" fill="none" fill-rule="evenodd">
        <g id="发起流程" transform="translate(-520.000000, -1749.000000)">
            <g id="Group-4" transform="translate(520.000000, 1749.000000)">
                <g id="Power-point-logo">
                    <g id="One-Note" transform="translate(21.768640, 6.835319)" fill="#FA5D40">
                        <path d="M0.738278726,18.8492082 L0.738278726,16.1998802 L9.33569967,16.1998802 L9.33569967,14.4336615 L0.738278726,14.4336615 L0.738278726,0.0792911327 L13.3367138,0.0792911327 L13.3367138,22.6724135 L0.738278726,22.6724135 L0.738278726,20.6154269 L9.33569967,20.6154269 L9.33569967,18.8492082 L0.738278726,18.8492082 Z" id="Rectangle-46"></path>
                    </g>
                    <circle id="Path" fill="#FFFFFF" cx="24.6729206" cy="14.3372209" r="3.33417845"></circle>
                    <rect id="Rectangle-88" stroke="#FFFFFF" stroke-width="1.31511595" fill="#D8D8D8" x="23.3299715" y="4.9922435" width="13.3552692" height="1"></rect>
                    <path d="M36.6852407,6.32591489 L37.3427987,6.32591489 L36.6852407,5.66835691 L36.6852407,6.32591489 Z M36.6852407,23.6821983 L36.6852407,24.3397563 L37.3427987,23.6821983 L36.6852407,23.6821983 Z M36.6666853,23.6821983 L36.0091273,23.6821983 L36.6666853,24.3397563 L36.6666853,23.6821983 Z M36.6666853,6.32591489 L36.6666853,5.66835691 L36.0091273,6.32591489 L36.6666853,6.32591489 Z" id="Rectangle-88-Copy" stroke="#FFFFFF" stroke-width="1.31511595" fill="#D8D8D8"></path>
                    <polygon id="Path" fill="#FA5D40" points="21.5972541 0.246253592 21.5972541 35.587434 0.429898188 31.8414857 0.429898188 3.84211157"></polygon>
                    <polygon id="Triangle-1" fill="#FA5D40" points="29.6642736 14.4990242 24.733334 14.4990241 24.733334 9.28240517"></polygon>
                    <path d="M27.1475061,11.3156217 C27.4530892,11.5570581 27.9479036,12.1356629 28.1299033,12.6690559 C28.3636582,13.3541299 28.3325099,14.1204062 28.3325099,14.1204062 L25.0651819,14.1204062 L25.0651819,10.5784381 C25.0651819,10.5784381 26.3758262,10.7059294 27.1475061,11.3156217 Z" id="Triangle-1-Copy" fill="#FFFFFF"></path>
                    <text id="P" font-family=".SFNSText, .SF NS Text" font-size="16.1924596" font-weight="normal" fill="#FFFFFF">
                        <tspan x="5.7977334" y="21.8230587">P</tspan>
                    </text>
                </g>
                <text id="PPTX" font-family="Roboto-Medium, Roboto" font-size="12.9887995" font-weight="400" fill="#7E7E7E">
                    <tspan x="3.24719989" y="51.2699986">PPTX</tspan>
                </text>
            </g>
        </g>
    </g>
</svg>