<?xml version="1.0" encoding="UTF-8"?>
<svg width="40px" height="40px" viewBox="0 0 40 40" version="1.1" xmlns="http://www.w3.org/2000/svg" xmlns:xlink="http://www.w3.org/1999/xlink">
    <!-- Generator: Sketch 56.2 (81672) - https://sketch.com -->
    <title>Shape</title>
    <desc>Created with Sketch.</desc>
    <g id="Shape" stroke="none" stroke-width="1" fill="none" fill-rule="evenodd">
        <rect id="Rectangle" fill="#FFFFFF" opacity="0" x="0" y="0" width="40" height="40"></rect>
        <path d="M21.7740312,24.6481143 L39.3645658,12.6560471 L39.3645658,32.0244073 C39.3645658,33.1253617 38.3593622,34.0184258 37.1197519,34.0184258 L3.24534181,34.0184258 C2.00573152,34.0184258 1.00052794,33.1253617 1.00052794,32.0244073 L1.00052794,12.6560471 L18.5910625,24.6491309 C19.4700877,25.2478956 20.895006,25.2478956 21.7740312,24.6481143 Z M3.24481386,6 L37.1197519,6 C38.3593622,6 39.3640379,6.89204755 39.3640379,7.99351026 L39.3640379,9.9595729 L21.7735033,21.9521484 C20.8944781,22.5519296 19.4695598,22.5519296 18.5905346,21.953165 L1,9.9595729 L1,7.99351026 C1,6.89204755 2.00520357,6 3.24481386,6 Z" fill="#40BEE2"></path>
    </g>
</svg>