<?xml version="1.0" encoding="UTF-8"?>
<svg width="36px" height="53px" viewBox="0 0 36 53" version="1.1" xmlns="http://www.w3.org/2000/svg" xmlns:xlink="http://www.w3.org/1999/xlink">
    <!-- Generator: Sketch 53 (72520) - https://sketchapp.com -->
    <title>Icon Word Label</title>
    <desc>Created with Sketch.</desc>
    <g id="Page-1" stroke="none" stroke-width="1" fill="none" fill-rule="evenodd">
        <g id="发起流程" transform="translate(-131.000000, -1474.000000)">
            <g id="Icon-Word-Label" transform="translate(131.000000, 1474.000000)">
                <text id="DOCX" font-family="Roboto-Medium, Roboto" font-size="12.9887995" font-weight="400" fill="#7E7E7E">
                    <tspan x="2.24719989" y="51.5899986">DOCX</tspan>
                </text>
                <g id="Word-tile">
                    <path d="M21.6173827,27.1882024 L32.5782649,27.1882024 L32.5782649,24.7528025 L21.6173827,24.7528025 L21.6173827,23.9410025 L32.5782649,23.9410025 L32.5782649,21.5056026 L21.6173827,21.5056026 L21.6173827,20.6938026 L32.5782649,20.6938026 L32.5782649,18.2584027 L21.6173827,18.2584027 L21.6173827,17.4466027 L32.5782649,17.4466027 L32.5782649,17.1580342 L32.5782649,14.7226342 L21.6173827,14.7226342 L21.6173827,13.9108343 L32.5782649,13.9108343 L32.5782649,11.4754344 L21.6173827,11.4754344 L21.6173827,10.6636344 L32.5782649,10.6636344 L32.5782649,8.22823447 L21.6173827,8.22823447 L21.6173827,4.29211734 L35.7604565,4.29211734 L35.7604565,30.6335922 L21.6173827,30.6335922 L21.6173827,27.1882024 Z M20.7359682,0.302812306 L20.7359682,34.5464405 L0.22598363,30.916826 L0.22598363,3.78699768 L20.7359682,0.302812306 Z" id="word-icon" fill="#529DEA"></path>
                    <text id="W" font-family=".SFNSText, .SF NS Text" font-size="15.9925526" font-weight="normal" fill="#FFFFFF">
                        <tspan x="2.70102154" y="19.0828248">W</tspan>
                    </text>
                </g>
            </g>
        </g>
    </g>
</svg>