<?xml version="1.0" encoding="UTF-8"?>
<svg width="36px" height="36px" viewBox="0 0 36 36" version="1.1" xmlns="http://www.w3.org/2000/svg" xmlns:xlink="http://www.w3.org/1999/xlink">
    <!-- Generator: Sketch 56.2 (81672) - https://sketch.com -->
    <title>Icon ZIP</title>
    <desc>Created with Sketch.</desc>
    <g id="Icon-ZIP" stroke="none" stroke-width="1" fill="none" fill-rule="evenodd">
        <g>
            <polygon id="Rectangle" fill="#FFFFFF" opacity="0" points="0 0 36 0 36 36 0 36"></polygon>
            <g id="Group-5" transform="translate(4.000000, 0.000000)" fill="#FFC657">
                <path d="M11.7831572,0.624615302 L11.7831572,2.03270594 L13.3810519,2.03270594 L13.3810519,3.48460751 L11.7831572,3.48460751 L11.7831572,4.93650908 L13.3810519,4.93650908 L13.3810519,6.38841065 L11.7831572,6.38841065 L11.7831572,7.84031223 L13.3810519,7.84031223 L13.3810519,9.2922138 L11.7831572,9.2922138 L11.7831572,10.7441154 L13.3810519,10.7441154 L13.3810519,12.1960169 L11.7831572,12.1960169 L11.7831572,13.6479185 L13.3810519,13.6479185 L13.3810519,15.0998201 L11.7831572,15.0998201 L11.7831572,16.5517216 L13.3810519,16.5517216 L13.3810519,18.0036232 L11.7831572,18.0036232 L11.7831572,19.4555248 L12.5821046,19.4555248 C12.1404989,19.4555248 11.7831572,19.7802176 11.7831572,20.1814756 L11.7831572,27.4409834 C11.7831572,27.8422414 12.1404989,28.1669342 12.5821046,28.1669342 L15.7778939,28.1669342 C16.2194996,28.1669342 16.5768412,27.8422414 16.5768412,27.4409834 L16.5768412,20.1814756 C16.5768412,19.7802176 16.2194996,19.4555248 15.7778939,19.4555248 L14.9789466,19.4555248 L14.9789466,18.0036232 L16.5768412,18.0036232 L16.5768412,16.5517216 L14.9789466,16.5517216 L14.9789466,15.0998201 L16.5768412,15.0998201 L16.5768412,13.6479185 L14.9789466,13.6479185 L14.9789466,12.1960169 L16.5768412,12.1960169 L16.5768412,10.7441154 L14.9789466,10.7441154 L14.9789466,9.2922138 L16.5768412,9.2922138 L16.5768412,7.84031223 L14.9789466,7.84031223 L14.9789466,6.38841065 L16.5768412,6.38841065 L16.5768412,4.93650908 L14.9789466,4.93650908 L14.9789466,3.48460751 L16.5768412,3.48460751 L16.5768412,2.03270594 L14.9789466,2.03270594 L14.9789466,0.624615302 L17.5755254,0.624615302 L27.7621038,10.8596917 L27.7621038,31.3298445 C27.7621038,33.2062752 26.234117,34.7415367 24.3665777,34.7415367 L3.9934208,34.7415367 C2.12588142,34.7415367 0.597894656,33.2062752 0.597894656,31.3298445 L0.597894656,4.03630744 C0.597894656,2.15987676 2.12588142,0.624615302 3.9934208,0.624615302 L11.7831572,0.624615302 Z" id="Path"></path>
            </g>
        </g>
    </g>
</svg>