<?xml version="1.0" encoding="UTF-8"?>
<svg width="18px" height="13px" viewBox="0 0 18 13" version="1.1" xmlns="http://www.w3.org/2000/svg" xmlns:xlink="http://www.w3.org/1999/xlink">
    <!-- Generator: Sketch 53 (72520) - https://sketchapp.com -->
    <title>下载</title>
    <desc>Created with Sketch.</desc>
    <g id="Page-1" stroke="none" stroke-width="1" fill="none" fill-rule="evenodd">
        <g id="发起流程" transform="translate(-263.000000, -1567.000000)">
            <g id="下载" transform="translate(263.000000, 1564.000000)">
                <rect id="Rectangle" fill="#FFFFFF" opacity="0" x="0" y="0" width="18" height="18"></rect>
                <path d="M8.50242683,11.4103063 L8.50242683,8.0713826 C8.50242683,7.65428682 8.73655121,7.3125 9.02226231,7.3125 L9.10757882,7.3125 C9.39527404,7.3125 9.62939841,7.65428682 9.62741431,8.0713826 L9.62741431,11.2954783 L10.8496967,10.2145249 C11.059137,10.0293016 11.379075,10.0489333 11.5642983,10.2583736 C11.7495216,10.4678138 11.7298899,10.7877518 11.5204496,10.9729751 L9.40030327,12.8479751 C9.28640238,12.948706 9.1398211,12.9888497 9,12.9708264 C8.8601789,12.9888497 8.71359762,12.948706 8.59969673,12.8479751 L6.47955039,10.9729751 C6.27011013,10.7877518 6.2504784,10.4678138 6.43570169,10.2583736 C6.62092498,10.0489333 6.94086301,10.0293016 7.15030327,10.2145249 L8.50242683,11.4103063 Z M8.86651051,4.59819898 C7.20760348,4.71303427 6.14150368,5.39974924 5.46147747,6.50435946 C5.19415257,6.93859246 5.00526711,7.41211255 4.88466832,7.88614514 C4.81400146,8.16391238 4.7831179,8.3681606 4.776528,8.45745133 L4.70110115,9.47945711 L3.6810123,9.57745595 C3.62756259,9.5825908 3.49248846,9.60465757 3.30593567,9.65187404 C2.98706088,9.73258117 2.66918203,9.85296965 2.38181777,10.0159516 C1.62758361,10.4437241 1.215,11.0664557 1.215,12.0692162 C1.215,13.4100786 2.44339642,14.535 3.90759746,14.535 L9.12537875,14.535 L13.7909408,14.5351488 C15.4648602,14.5089479 16.7844155,13.217344 16.7845946,11.6199634 C16.8107425,10.0970388 15.5382048,8.83499012 13.8855644,8.78239222 L12.8840804,8.75051841 L12.7246858,7.76128664 C12.4269777,5.91365508 10.7155421,4.47020262 8.86651051,4.59819898 Z M8.7826048,3.38609964 C11.3593957,3.20772526 13.5433542,5.20432028 13.9242141,7.56800711 C16.2093738,7.64073594 18.0375015,9.42259217 17.9994155,11.6408213 C17.9994155,13.8954149 16.1332018,15.7136356 13.8099561,15.75 L3.90759746,15.75 C1.85095374,15.75 1.85976457e-16,14.1573091 0,12.0692162 C0,8.71049293 3.56482351,8.36802419 3.56482351,8.36802419 C3.56482351,8.36802419 3.90759746,3.72356451 8.7826048,3.38609964 Z" id="Shape" fill="#8CA0B3" fill-rule="nonzero"></path>
                <g id="Group-2" transform="translate(6.187500, 7.312500)"></g>
            </g>
        </g>
    </g>
</svg>