<?xml version="1.0" encoding="UTF-8"?>
<svg width="38px" height="53px" viewBox="0 0 38 53" version="1.1" xmlns="http://www.w3.org/2000/svg" xmlns:xlink="http://www.w3.org/1999/xlink">
    <!-- Generator: Sketch 53 (72520) - https://sketchapp.com -->
    <title>Icon Excel03</title>
    <desc>Created with Sketch.</desc>
    <g id="Page-1" stroke="none" stroke-width="1" fill="none" fill-rule="evenodd">
        <g id="发起流程" transform="translate(-909.000000, -1749.000000)">
            <g id="Icon-Excel03" transform="translate(909.000000, 1749.000000)">
                <text id="XLSX" font-family="Roboto-Medium, Roboto" font-size="12.9887995" font-weight="400" fill="#7E7E7E">
                    <tspan x="0" y="51.1089398">XLSX</tspan>
                </text>
                <g id="Excel">
                    <path d="M22.8293499,29.5454741 L28.300847,29.5454741 L28.300847,25.7817195 L22.8293499,25.7817195 L22.8293499,24.6525931 L28.300847,24.6525931 L28.300847,20.8888384 L22.8293499,20.8888384 L22.8293499,19.759712 L28.300847,19.759712 L28.300847,15.9959573 L22.8293499,15.9959573 L22.8293499,14.8668309 L28.300847,14.8668309 L28.300847,11.1030763 L22.8293499,11.1030763 L22.8293499,9.97394987 L28.300847,9.97394987 L28.300847,6.2101952 L22.8293499,6.2101952 L22.8293499,4.24653528 L37.923135,4.24653528 L37.923135,32.2865076 L22.8293499,32.2865076 L22.8293499,29.5454741 Z M21.8886859,0 L21.8886859,36.4516561 L0,32.5880043 L0,3.70884552 L21.8886859,0 Z M29.4328809,6.2101952 L29.4328809,9.97394987 L35.6590673,9.97394987 L35.6590673,6.2101952 L29.4328809,6.2101952 Z M29.4328809,11.1030763 L29.4328809,14.8668309 L35.6590673,14.8668309 L35.6590673,11.1030763 L29.4328809,11.1030763 Z M29.4328809,15.9959573 L29.4328809,19.759712 L35.6590673,19.759712 L35.6590673,15.9959573 L29.4328809,15.9959573 Z M29.4328809,20.8888384 L29.4328809,24.6525931 L35.6590673,24.6525931 L35.6590673,20.8888384 L29.4328809,20.8888384 Z M29.4328809,25.7817195 L29.4328809,29.5454741 L35.6590673,29.5454741 L35.6590673,25.7817195 L29.4328809,25.7817195 Z" id="Rectangle-46" fill="#4BB890"></path>
                    <text id="X" font-family=".SFNSText, .SF NS Text" font-size="14.8830758" font-weight="normal" fill="#FFFFFF">
                        <tspan x="5.3326089" y="20.2665346">X</tspan>
                    </text>
                </g>
            </g>
        </g>
    </g>
</svg>