<?xml version="1.0" encoding="UTF-8"?>
<svg width="1366px" height="800px" viewBox="0 0 1366 800" version="1.1" xmlns="http://www.w3.org/2000/svg" xmlns:xlink="http://www.w3.org/1999/xlink">
    <!-- Generator: Sketch 52.2 (67145) - http://www.bohemiancoding.com/sketch -->
    <title>背景</title>
    <desc>Created with Sketch.</desc>
    <defs>
        <radialGradient cx="50%" cy="50%" fx="50%" fy="50%" r="50%" gradientTransform="translate(0.500000,0.500000),scale(0.585652,1.000000),rotate(90.000000),scale(1.000000,1.774088),translate(-0.500000,-0.500000)" id="radialGradient-1">
            <stop stop-color="#A7A7A7" offset="0%"></stop>
            <stop stop-color="#666565" offset="100%"></stop>
        </radialGradient>
        <rect id="path-2" x="0" y="0" width="1366" height="800"></rect>
        <linearGradient x1="100%" y1="50%" x2="0%" y2="50%" id="linearGradient-4">
            <stop stop-color="#8C8C8C" offset="0%"></stop>
            <stop stop-color="#C0C0C0" offset="100%"></stop>
        </linearGradient>
        <linearGradient x1="50%" y1="100%" x2="50%" y2="3.061617e-15%" id="linearGradient-5">
            <stop stop-color="#8C8C8C" offset="0%"></stop>
            <stop stop-color="#C0C0C0" offset="100%"></stop>
        </linearGradient>
    </defs>
    <g id="Page-1" stroke="none" stroke-width="1" fill="none" fill-rule="evenodd">
        <g id="1业务流程">
            <g id="背景">
                <mask id="mask-3" fill="white">
                    <use xlink:href="#path-2"></use>
                </mask>
                <use id="Mask" fill="url(#radialGradient-1)" xlink:href="#path-2"></use>
                <g id="Group-52" opacity="0.3" mask="url(#mask-3)">
                    <g id="Group-51">
                        <g id="Group-13" transform="translate(906.165453, 0.000000)" fill="url(#linearGradient-4)">
                            <polygon id="Fill-3" points="459.791549 173.18556 459.791549 0.188269199 306.717816 86.3663805"></polygon>
                            <polygon id="Fill-5" points="306.719238 86.3662384 306.719238 86.3655277 153.646216 0.187416337 459.791549 0.187416337 306.720659 86.3655277 306.720659 86.3662384"></polygon>
                            <polygon id="Fill-7" points="306.719238 86.3662384 306.719238 260.005307 153.646216 173.185417"></polygon>
                            <polygon id="Fill-9" points="153.646287 173.186981 153.646287 346.82605 0.57326514 260.005449"></polygon>
                            <polygon id="Fill-11" points="153.646287 173.18556 153.646287 0.188269199 0.57326514 86.3663805"></polygon>
                        </g>
                        <g id="Group-22" transform="translate(126.507804, 0.000000)" fill="url(#linearGradient-4)">
                            <polygon id="Fill-14" points="89.9235241 0.00987898023 89.9235241 101.081797 179.355302 50.7331121"></polygon>
                            <polygon id="Fill-16" points="89.9235241 0.00987898023 89.9235241 101.081797 0.491745786 50.7331121"></polygon>
                            <polygon id="Fill-18" points="179.354592 50.7331831 179.354592 0.187629553 268.785659 0.00995005203"></polygon>
                            <polygon id="Fill-20" points="268.78573 0.00987898023 268.78573 101.081797 358.217509 50.7331121"></polygon>
                        </g>
                        <g id="Group-35" transform="translate(0.000000, 600.000000)" fill="url(#linearGradient-4)">
                            <polygon id="Fill-23" points="264.75006 100.498013 264.75006 200.234492 176.499495 150.551039"></polygon>
                            <polygon id="Fill-25" points="264.75006 100.498013 264.75006 200.234492 352.999915 150.551039"></polygon>
                            <polygon id="Fill-27" points="176.500277 150.550897 176.500277 150.551608 88.2504229 200.23506 264.750132 200.23506 176.500988 150.551608 176.500988 150.550897"></polygon>
                            <polygon id="Fill-29" points="176.500277 150.550897 176.500277 50.4434234 88.2504229 100.497871"></polygon>
                            <polygon id="Fill-31" points="88.2501386 100.497302 88.2501386 0.389828824 0.000284287201 50.4435656"></polygon>
                            <polygon id="Fill-33" points="88.2501386 100.498013 88.2501386 200.234492 0.000284287201 150.551039"></polygon>
                        </g>
                        <g id="Group-50" transform="translate(714.000000, 431.000000)">
                            <polygon id="Fill-36" fill="url(#linearGradient-4)" points="162.891165 184.70907 162.891165 368.674161 325.669752 277.032049"></polygon>
                            <polygon id="Fill-38" fill="url(#linearGradient-4)" points="162.891165 184.70907 162.891165 368.674161 0.112577732 277.032049"></polygon>
                            <polygon id="Fill-40" fill="url(#linearGradient-4)" points="325.668472 277.032334 325.668472 277.033755 488.446348 368.675156 162.891307 368.675156 325.667051 277.033755 325.667051 277.032334"></polygon>
                            <polygon id="Fill-42" fill="url(#linearGradient-4)" points="325.668472 277.032334 325.668472 92.3835324 488.446348 184.709354"></polygon>
                            <polygon id="Fill-44" fill="url(#linearGradient-4)" points="488.446491 184.70772 488.446491 0.0589185224 651.224367 92.3840299"></polygon>
                            <polygon id="Fill-46" fill="url(#linearGradient-5)" points="488.446491 368.675369 651.224367 277.033968 651.224367 368.320721"></polygon>
                            <polygon id="Fill-48" fill="url(#linearGradient-4)" points="488.446491 184.70907 488.446491 368.674161 651.224367 277.032049"></polygon>
                        </g>
                    </g>
                </g>
            </g>
        </g>
    </g>
</svg>