<?xml version="1.0" encoding="UTF-8"?>
<svg width="20px" height="20px" viewBox="0 0 20 20" version="1.1" xmlns="http://www.w3.org/2000/svg" xmlns:xlink="http://www.w3.org/1999/xlink">
    <!-- Generator: Sketch 52.2 (67145) - http://www.bohemiancoding.com/sketch -->
    <title>菜单icon</title>
    <desc>Created with Sketch.</desc>
    <defs>
        <path d="M7.59752591,2 L3.7362101,2 C2.77924086,2 2.00048322,2.77856435 2.00048322,3.73572688 L2.00048322,7.59704269 C2.00048322,8.55401194 2.77904757,9.33276958 3.7362101,9.33276958 L7.59752591,9.33276958 C8.55449516,9.33276958 9.3332528,8.55420522 9.3332528,7.59704269 L9.3332528,3.7355336 C9.3332528,2.77856435 8.55468844,2 7.59752591,2 Z M8.17603711,7.5968494 C8.17603711,7.91577472 7.91645123,8.1753606 7.59752591,8.1753606 L3.7362101,8.1753606 C3.41728479,8.1753606 3.15769891,7.91577472 3.15769891,7.5968494 L3.15769891,3.7355336 C3.15769891,3.41660828 3.41728479,3.1570224 3.7362101,3.1570224 L7.59752591,3.1570224 C7.91645123,3.1570224 8.17603711,3.41660828 8.17603711,3.7355336 L8.17603711,7.5968494 Z M7.59752591,10.6672304 L3.7362101,10.6672304 C2.77924086,10.6672304 2.00048322,11.4457948 2.00048322,12.4029573 L2.00048322,16.2642731 C2.00048322,17.2212424 2.77904757,18 3.7362101,18 L7.59752591,18 C8.55449516,18 9.3332528,17.2214356 9.3332528,16.2642731 L9.3332528,12.4029573 C9.3332528,11.4459881 8.55468844,10.6672304 7.59752591,10.6672304 Z M8.17603711,16.2642731 C8.17603711,16.5831984 7.91645123,16.8427843 7.59752591,16.8427843 L3.7362101,16.8427843 C3.41728479,16.8427843 3.15769891,16.5831984 3.15769891,16.2642731 L3.15769891,12.4029573 C3.15769891,12.084032 3.41728479,11.8244461 3.7362101,11.8244461 L7.59752591,11.8244461 C7.91645123,11.8244461 8.17603711,12.084032 8.17603711,12.4029573 L8.17603711,16.2642731 Z M16.2637899,2 L12.4024741,2 C11.4455048,2 10.6667472,2.77856435 10.6667472,3.73572688 L10.6667472,7.59704269 C10.6667472,8.55401194 11.4453116,9.33276958 12.4024741,9.33276958 L16.2637899,9.33276958 C17.2207591,9.33276958 17.9995168,8.55420522 17.9995168,7.59704269 L17.9995168,3.7355336 C17.9995168,2.77856435 17.2209524,2 16.2637899,2 Z M16.8423011,7.5968494 C16.8423011,7.91577472 16.5827152,8.1753606 16.2637899,8.1753606 L12.4024741,8.1753606 C12.0835488,8.1753606 11.8239629,7.91577472 11.8239629,7.5968494 L11.8239629,3.7355336 C11.8239629,3.41660828 12.0835488,3.1570224 12.4024741,3.1570224 L16.2637899,3.1570224 C16.5827152,3.1570224 16.8423011,3.41660828 16.8423011,3.7355336 L16.8423011,7.5968494 Z M16.2637899,10.6672304 L12.4024741,10.6672304 C11.4455048,10.6672304 10.6667472,11.4457948 10.6667472,12.4029573 L10.6667472,16.2642731 C10.6667472,17.2212424 11.4453116,18 12.4024741,18 L16.2637899,18 C17.2207591,18 17.9995168,17.2214356 17.9995168,16.2642731 L17.9995168,12.4029573 C17.9995168,11.4459881 17.2209524,10.6672304 16.2637899,10.6672304 Z M16.8423011,16.2642731 C16.8423011,16.5831984 16.5827152,16.8427843 16.2637899,16.8427843 L12.4024741,16.8427843 C12.0835488,16.8427843 11.8239629,16.5831984 11.8239629,16.2642731 L11.8239629,12.4029573 C11.8239629,12.084032 12.0835488,11.8244461 12.4024741,11.8244461 L16.2637899,11.8244461 C16.5827152,11.8244461 16.8423011,12.084032 16.8423011,12.4029573 L16.8423011,16.2642731 Z" id="path-1"></path>
    </defs>
    <g id="菜单icon" stroke="none" stroke-width="1" fill="none" fill-rule="evenodd">
        <mask id="mask-2" fill="white">
            <use xlink:href="#path-1"></use>
        </mask>
        <use id="Shape" fill="#FFFFFF" fill-rule="nonzero" xlink:href="#path-1"></use>
        <g id="颜色1" mask="url(#mask-2)" fill="#FFFFFF">
            <rect id="Rectangle" x="0" y="0" width="20" height="20"></rect>
        </g>
    </g>
</svg>