<?xml version="1.0" encoding="UTF-8"?>
<svg width="20px" height="20px" viewBox="0 0 20 20" version="1.1" xmlns="http://www.w3.org/2000/svg" xmlns:xlink="http://www.w3.org/1999/xlink">
    <!-- Generator: Sketch 52.2 (67145) - http://www.bohemiancoding.com/sketch -->
    <title>操作手册icon</title>
    <desc>Created with Sketch.</desc>
    <defs>
        <path d="M9.09598662,2.11070234 L9.09598662,8.54414716 C9.09598662,8.73879599 8.86521739,8.83913043 8.72274247,8.70869565 L7.63311037,7.70535117 C7.43846154,7.57491639 7.10535117,7.56086957 6.87056856,7.72541806 L5.80100334,8.73076923 C5.65852843,8.8632107 5.42575251,8.76287625 5.42575251,8.56822742 L5.42575251,2.11070234 L4.85986622,2.11070234 C4.15150502,2.11070234 3.57558528,2.68662207 3.57558528,3.39498328 L3.57558528,14.2150502 C4.02307692,13.8939799 4.5548495,13.719398 5.11070234,13.719398 L14.887291,13.719398 C15.4431438,13.719398 15.9769231,13.8919732 16.422408,14.2150502 L16.422408,2.11070234 L9.09598662,2.11070234 Z M7.99431438,6.65384615 L7.99431438,2.23712375 L6.52541806,2.23712375 L6.52541806,6.65785953 C6.98695652,6.44715719 7.53277592,6.4451505 7.99431438,6.65384615 Z M4.85986622,1.0090301 L17.526087,1.0090301 L17.526087,16.3501672 C17.526087,16.9521739 17.319398,17.5361204 16.9421405,18.0036789 L16.9180602,18.0337793 C16.8076923,18.164214 16.6993311,18.2725753 16.5829431,18.370903 L16.5408027,18.4050167 C16.0692308,18.7842809 15.4832776,18.9909699 14.8892977,18.9909699 L5.1187291,18.9909699 C4.51672241,18.9909699 3.93076923,18.7842809 3.4632107,18.4070234 L3.41906355,18.370903 C3.31070234,18.2785953 3.21036789,18.1782609 3.11605351,18.0698997 L3.07792642,18.0277592 C2.68461538,17.5461538 2.47391304,16.9561873 2.47391304,16.3541806 L2.47391304,3.39498328 C2.47391304,2.07859532 3.54347826,1.0090301 4.85986622,1.0090301 Z M14.8812709,17.887291 C15.7301003,17.887291 16.4204013,17.1989967 16.4244147,16.3501672 C16.422408,15.5053512 15.7341137,14.8190635 14.8892977,14.8190635 L5.11070234,14.8190635 C4.26588629,14.8190635 3.57759197,15.5053512 3.57558528,16.3501672 C3.57759197,17.19699 4.26789298,17.887291 5.11672241,17.887291 L14.8812709,17.887291 Z" id="path-1"></path>
    </defs>
    <g id="操作手册icon" stroke="none" stroke-width="1" fill="none" fill-rule="evenodd">
        <mask id="mask-2" fill="white">
            <use xlink:href="#path-1"></use>
        </mask>
        <use id="Combined-Shape" fill="#FFFFFF" fill-rule="nonzero" xlink:href="#path-1"></use>
        <g id="颜色1" mask="url(#mask-2)" fill="#FFFFFF">
            <rect id="Rectangle" x="0" y="0" width="20" height="20"></rect>
        </g>
    </g>
</svg>